<?xml version="1.0" encoding="UTF-8" standalone="no"?>
<!-- Created with Inkscape (http://www.inkscape.org/) -->

<svg
   version="1.1"
   id="svg2"
   width="816"
   height="1056"
   viewBox="0 0 816 1056"
   sodipodi:docname="F Logo [Converted].ai"
   xmlns:inkscape="http://www.inkscape.org/namespaces/inkscape"
   xmlns:sodipodi="http://sodipodi.sourceforge.net/DTD/sodipodi-0.dtd"
   xmlns="http://www.w3.org/2000/svg"
   xmlns:svg="http://www.w3.org/2000/svg">
  <defs
     id="defs6">
    <clipPath
       clipPathUnits="userSpaceOnUse"
       id="clipPath16">
      <path
         d="M 0,792 H 612 V 0 H 0 Z"
         id="path14" />
    </clipPath>
  </defs>
  <sodipodi:namedview
     id="namedview4"
     pagecolor="#ffffff"
     bordercolor="#000000"
     borderopacity="0.25"
     inkscape:showpageshadow="2"
     inkscape:pageopacity="0.0"
     inkscape:pagecheckerboard="0"
     inkscape:deskcolor="#d1d1d1" />
  <g
     id="g8"
     inkscape:groupmode="layer"
     inkscape:label="F Logo [Converted]"
     transform="matrix(1.3333333,0,0,-1.3333333,0,1056)">
    <g
       id="g10">
      <g
         id="g12"
         clip-path="url(#clipPath16)">
        <g
           id="g18"
           transform="translate(342.4258,328.3975)">
          <path
             d="m 0,0 c -1.459,-0.849 -3.32,-1.898 -4.931,-2.696 -1.61,-0.799 -3.624,-1.723 -5.865,-2.521 -2.241,-0.8 -4.712,-1.474 -7.236,-1.773 -2.525,-0.299 -5.304,-0.299 -8.213,0.187 -2.909,0.488 -5.946,1.461 -8.989,3.109 -4.318,2.336 -8.42,3.433 -11.442,3.947 -3.021,0.514 -4.965,0.444 -4.965,0.444 h -12.856 -12.857 l -12.809,-49.326 -12.81,-49.326 h 14.727 15.108 l 4.09,15.759 3.982,15.592 h 15.157 15.159 l 1.994,7.589 1.994,7.591 h -15.29 -14.963 c 1.971,7.902 2.343,8.424 2.938,11.436 1.491,5.486 2.702,10.509 3.221,12.33 0.61,2.146 1.523,3.349 2.518,3.986 0.996,0.639 2.076,0.715 3.022,0.606 1.971,-0.225 2.986,-1.28 3.547,-2.5 0.562,-1.221 0.669,-2.606 0.826,-3.492 0.211,-1.199 0.549,-2.347 1.137,-3.42 0.59,-1.073 1.431,-2.072 2.65,-2.97 1.22,-0.898 2.891,-1.472 4.776,-1.796 1.886,-0.324 3.984,-0.402 6.053,-0.303 3.192,0.154 5.764,0.729 8.192,1.589 2.43,0.86 4.714,2.007 7.331,3.305 2.616,1.299 5.173,3.03 7.075,4.439 1.903,1.408 3.151,2.491 3.151,2.491 l 3.547,13.61 3.547,13.61 C 2.516,1.497 1.459,0.849 0,0"
             style="fill:#1f357a;fill-opacity:1;fill-rule:nonzero;stroke:none"
             id="path20" />
        </g>
        <g
           id="g22"
           transform="translate(353.9492,323.0781)">
          <path
             d="M 0,0 H 1.395 C 2.066,0 2.52,0.098 2.764,0.291 3.008,0.488 3.131,0.746 3.131,1.068 3.131,1.273 3.07,1.459 2.953,1.623 2.836,1.786 2.672,1.91 2.463,1.99 2.256,2.068 1.869,2.11 1.309,2.11 H 0 V 0 M -1.143,-3.946 V 3.072 H 1.305 C 2.137,3.072 2.744,3.008 3.117,2.877 3.494,2.748 3.791,2.521 4.012,2.197 4.236,1.872 4.348,1.527 4.348,1.164 4.348,0.647 4.16,0.2 3.787,-0.182 3.416,-0.564 2.92,-0.777 2.309,-0.824 2.555,-0.931 2.76,-1.053 2.91,-1.197 3.201,-1.473 3.549,-1.934 3.963,-2.582 L 4.836,-3.946 H 3.424 L 2.793,-2.848 C 2.297,-1.983 1.9,-1.441 1.594,-1.223 1.381,-1.062 1.076,-0.982 0.674,-0.982 H 0 V -3.946 Z M 1.766,5.109 C 0.832,5.109 -0.074,4.874 -0.953,4.404 -1.834,3.936 -2.523,3.265 -3.021,2.39 -3.518,1.516 -3.768,0.607 -3.768,-0.34 c 0,-0.938 0.245,-1.84 0.735,-2.701 0.488,-0.862 1.168,-1.535 2.049,-2.016 0.879,-0.482 1.793,-0.722 2.75,-0.722 0.953,0 1.865,0.24 2.748,0.722 0.879,0.481 1.56,1.154 2.045,2.016 0.486,0.861 0.73,1.763 0.73,2.701 0,0.947 -0.25,1.856 -0.74,2.73 C 6.051,3.265 5.363,3.936 4.479,4.404 3.594,4.874 2.688,5.109 1.766,5.109 m 0,1.093 C 2.879,6.202 3.965,5.92 5.027,5.357 6.086,4.795 6.912,3.988 7.506,2.94 8.096,1.893 8.395,0.8 8.395,-0.34 8.395,-1.465 8.1,-2.549 7.52,-3.588 6.934,-4.627 6.117,-5.434 5.065,-6.01 4.014,-6.584 2.912,-6.871 1.766,-6.871 c -1.149,0 -2.252,0.287 -3.303,0.861 -1.053,0.576 -1.871,1.383 -2.457,2.422 -0.586,1.039 -0.879,2.123 -0.879,3.248 0,1.14 0.297,2.233 0.893,3.28 0.595,1.048 1.421,1.855 2.482,2.417 1.059,0.563 2.148,0.845 3.264,0.845"
             style="fill:#1f357a;fill-opacity:1;fill-rule:nonzero;stroke:none"
             id="path24" />
        </g>
      </g>
    </g>
  </g>
</svg>
