<?xml version="1.0" encoding="UTF-8" standalone="no"?>
<!-- Created with Inkscape (http://www.inkscape.org/) -->

<svg
   version="1.1"
   id="svg1"
   width="435.44"
   height="261.42667"
   viewBox="0 0 435.44 261.42667"
   sodipodi:docname="Farr YACHT DESIGN.eps"
   xmlns:inkscape="http://www.inkscape.org/namespaces/inkscape"
   xmlns:sodipodi="http://sodipodi.sourceforge.net/DTD/sodipodi-0.dtd"
   xmlns="http://www.w3.org/2000/svg"
   xmlns:svg="http://www.w3.org/2000/svg">
  <defs
     id="defs1" />
  <sodipodi:namedview
     id="namedview1"
     pagecolor="#ffffff"
     bordercolor="#000000"
     borderopacity="0.25"
     inkscape:showpageshadow="2"
     inkscape:pageopacity="0.0"
     inkscape:pagecheckerboard="0"
     inkscape:deskcolor="#d1d1d1">
    <inkscape:page
       x="0"
       y="0"
       inkscape:label="1"
       id="page1"
       width="435.44"
       height="261.42667"
       margin="0"
       bleed="0" />
  </sodipodi:namedview>
  <g
     id="g1"
     inkscape:groupmode="layer"
     inkscape:label="1">
    <path
       id="path1"
       d="m 912.313,1948.15 c -12.254,-7.13 -27.899,-15.94 -41.434,-22.65 -13.535,-6.71 -30.449,-14.48 -49.285,-21.19 -18.84,-6.72 -39.602,-12.38 -60.813,-14.9 -21.211,-2.51 -44.57,-2.51 -69.011,1.58 -24.446,4.1 -49.973,12.27 -75.547,26.12 -36.282,19.64 -70.754,28.85 -96.145,33.17 -25.39,4.32 -41.719,3.73 -41.719,3.73 H 370.32 262.285 L 154.641,1539.51 46.9922,1125.01 H 170.754 297.703 l 34.375,132.42 33.457,131.02 H 492.91 620.293 l 16.758,63.78 16.758,63.79 H 525.32 399.578 c 16.567,66.41 19.692,70.78 24.692,96.1 12.539,46.1 22.703,88.32 27.07,103.61 5.125,18.04 12.793,28.15 21.16,33.5 8.367,5.37 17.441,6 25.391,5.09 16.562,-1.89 25.097,-10.76 29.812,-21.01 4.719,-10.26 5.617,-21.9 6.938,-29.34 1.777,-10.08 4.605,-19.72 9.558,-28.74 4.949,-9.01 12.024,-17.41 22.266,-24.96 10.254,-7.55 24.297,-12.37 40.137,-15.1 15.839,-2.72 33.464,-3.37 50.859,-2.54 26.824,1.3 48.437,6.13 68.848,13.35 20.41,7.24 39.609,16.87 61.601,27.78 21.992,10.92 43.477,25.47 59.453,37.3 15.996,11.84 26.477,20.94 26.477,20.94 l 29.805,114.36 29.812,114.37 c 0,0 -8.887,-5.45 -21.144,-12.58"
       style="fill:#2e4c93;fill-opacity:1;fill-rule:nonzero;stroke:none"
       transform="matrix(0.13333333,0,0,-0.13333333,0,261.42667)" />
    <path
       id="path2"
       d="m 1174.46,1719.08 c -85.67,0 -112.1,-10.07 -139.8,-20.6 -11.03,-4.19 -44.039,-14.77 -90.426,-46.23 -42.675,-28.96 -81.25,-57.2 -122.492,-109.92 C 785.25,1495.64 760.141,1453.9 744,1396 c -18.164,-65.26 -16.641,-109.77 1.719,-161.93 34.804,-99 93.269,-109.06 93.269,-109.06 l 185.222,191.33 -46.276,-191.8 h 197.856 l 154.97,593.59 c 0,0 -136.82,0.95 -156.3,0.95 z m -129.21,-327.33 c -1.5,-4.58 -7.58,-11.94 -16.17,-13.23 -8.6,-1.31 -18.83,-0.84 -31.623,5.17 -15.644,7.39 -25.859,17.14 -34.602,31.28 -9.285,14.99 -15.398,31.17 -14.355,53.37 1.32,27.93 16.066,57.61 31.75,77.61 15.684,19.98 41.23,47.14 61.67,63.34 18.93,14.98 61.66,38.67 71,42.85 0,0 -65.42,-253.42 -67.67,-260.39"
       style="fill:#2e4c93;fill-opacity:1;fill-rule:nonzero;stroke:none"
       transform="matrix(0.13333333,0,0,-0.13333333,0,261.42667)" />
    <path
       id="path3"
       d="m 2544.99,1823.13 c -7.84,0 -15.46,-1.97 -22.85,-5.92 -7.39,-3.93 -13.19,-9.58 -17.38,-16.93 -4.17,-7.34 -6.27,-14.98 -6.27,-22.93 0,-7.89 2.06,-15.47 6.18,-22.71 4.1,-7.24 9.8,-12.89 17.21,-16.93 7.39,-4.05 15.07,-6.07 23.11,-6.07 8.01,0 15.67,2.02 23.1,6.07 7.37,4.04 13.1,9.69 17.17,16.93 4.1,7.24 6.15,14.82 6.15,22.71 0,7.95 -2.1,15.59 -6.22,22.93 -4.18,7.35 -9.98,13 -17.4,16.93 -7.44,3.95 -15.06,5.92 -22.8,5.92 z m -24.43,-76.09 v 58.98 h 20.55 c 7,0 12.1,-0.54 15.24,-1.64 3.16,-1.09 5.65,-3 7.52,-5.72 1.87,-2.73 2.81,-5.62 2.81,-8.67 0,-4.35 -1.57,-8.11 -4.7,-11.31 -3.12,-3.22 -7.29,-5.01 -12.43,-5.41 2.07,-0.89 3.79,-1.91 5.05,-3.13 2.45,-2.31 5.37,-6.19 8.86,-11.64 l 7.32,-11.46 h -11.85 l -5.32,9.23 c -4.16,7.26 -7.5,11.82 -10.07,13.66 -1.78,1.34 -4.35,2.01 -7.72,2.01 h -5.67 v -24.9 z m 9.59,33.16 h 11.72 c 5.65,0 9.45,0.82 11.5,2.44 2.06,1.66 3.09,3.83 3.09,6.54 0,1.73 -0.5,3.28 -1.49,4.66 -0.99,1.37 -2.37,2.41 -4.13,3.08 -1.73,0.67 -4.98,1.02 -9.69,1.02 h -11 v -17.74 m 14.84,52.12 c 9.35,0 18.49,-2.37 27.4,-7.1 8.9,-4.72 15.85,-11.5 20.84,-20.31 4.95,-8.81 7.46,-17.99 7.46,-27.56 0,-9.46 -2.47,-18.56 -7.35,-27.3 -4.93,-8.73 -11.78,-15.51 -20.63,-20.35 -8.82,-4.83 -18.08,-7.24 -27.72,-7.24 -9.66,0 -18.93,2.41 -27.76,7.24 -8.84,4.84 -15.73,11.62 -20.65,20.35 -4.92,8.74 -7.38,17.84 -7.38,27.3 0,9.57 2.5,18.75 7.5,27.56 5.01,8.81 11.95,15.59 20.86,20.31 8.9,4.73 18.06,7.1 27.43,7.1"
       style="fill:#2e4c93;fill-opacity:1;fill-rule:nonzero;stroke:none"
       transform="matrix(0.13333333,0,0,-0.13333333,0,261.42667)" />
    <path
       id="path4"
       d="m 1906.95,1612.53 c -7.35,33.13 -15.8,46.97 -33.51,63.76 -16.48,15.64 -40.04,28.11 -57.9,33.98 -16.79,5.53 -27.67,8.81 -59.89,8.81 -18.61,0 -314.89,-0.33 -314.89,-0.33 l -154.37,-593.74 h 206.09 c 0,0 50.12,193.48 54.52,209.12 3.63,12.81 17.84,18.87 28.02,18.87 10.19,0 19.77,-4.87 25.11,-15.72 6.07,-12.37 2.71,-31.67 0.42,-55.37 -2.34,-24.62 -5.48,-53.7 1.13,-80.57 6.6,-26.84 15.9,-43.39 36.17,-56.82 20.26,-13.43 35.37,-19.51 64.32,-19.51 32.28,0 102.54,0 102.54,0 l 50.9,194.65 c 0,0 -20.92,-9.84 -39.81,-14.48 -17.83,-4.42 -35.65,-8.84 -61.75,-6.92 -17.13,1.2 -42.67,13.49 -54.77,28.62 -8.97,11.18 -17.21,28.94 -15.71,41.45 2.52,21.08 16,29.72 25.65,34.8 11.07,5.9 64.51,22.8 90.04,34.5 26.09,11.96 47.75,26.44 59.22,37.14 24.66,23.04 34.8,43.33 41.78,64.32 6.17,18.59 11.97,49.55 6.69,73.44 z m -211.21,-95.46 c -14.72,-17.48 -39.29,-39.93 -58.69,-54.16 -18.04,-13.29 -55.51,-36.4 -67.58,-43.29 0,0 58.56,226.19 60.64,232.31 1.34,4 7.1,10.47 15.4,11.68 8.29,1.22 18.17,0.98 30.66,-4.08 15.24,-6.23 25.29,-14.56 34,-26.74 9.22,-12.92 15.44,-26.88 14.79,-46.19 -0.78,-24.3 -14.4,-51.96 -29.22,-69.53"
       style="fill:#2e4c93;fill-opacity:1;fill-rule:nonzero;stroke:none"
       transform="matrix(0.13333333,0,0,-0.13333333,0,261.42667)" />
    <path
       id="path5"
       d="M 2400.28,1021.05 H 24.9414 l 7.1914,27.75 H 2407.48 l -7.2,-27.75"
       style="fill:#2e4c93;fill-opacity:1;fill-rule:nonzero;stroke:none"
       transform="matrix(0.13333333,0,0,-0.13333333,0,261.42667)" />
    <path
       id="path6"
       d="M 2407.48,1053.69 H 28.3555 l -9.7266,-37.53 H 2404.06 l 9.73,37.53 z m -6.32,-9.78 c -1.6,-6.17 -3.59,-13.86 -4.66,-17.97 -7.52,0 -2352.707,0 -2365.2461,0 1.6016,6.17 3.5938,13.86 4.6602,17.97 7.5195,0 2352.7059,0 2365.2459,0"
       style="fill:#2e4c93;fill-opacity:1;fill-rule:nonzero;stroke:none"
       transform="matrix(0.13333333,0,0,-0.13333333,0,261.42667)" />
    <path
       id="path7"
       d="m 2535.7,1613.78 c -7.35,33.13 -15.8,46.97 -33.51,63.76 -16.48,15.64 -40.04,28.11 -57.9,33.98 -16.79,5.53 -27.67,8.81 -59.89,8.81 -18.61,0 -314.89,-0.33 -314.89,-0.33 l -154.37,-593.74 h 206.09 c 0,0 50.12,193.48 54.52,209.12 3.63,12.81 17.84,18.87 28.02,18.87 10.19,0 19.77,-4.87 25.11,-15.72 6.07,-12.37 2.71,-31.67 0.42,-55.37 -2.34,-24.62 -5.48,-53.7 1.13,-80.57 6.6,-26.84 15.9,-43.39 36.17,-56.82 20.26,-13.43 35.37,-19.51 64.32,-19.51 32.28,0 102.54,0 102.54,0 l 50.9,194.65 c 0,0 -20.92,-9.84 -39.81,-14.48 -17.83,-4.42 -35.65,-8.84 -61.75,-6.92 -17.13,1.2 -42.67,13.49 -54.77,28.62 -8.97,11.18 -17.21,28.94 -15.71,41.45 2.52,21.08 16,29.72 25.65,34.8 11.07,5.9 64.51,22.8 90.04,34.5 26.09,11.96 47.75,26.44 59.22,37.14 24.66,23.04 34.8,43.33 41.78,64.32 6.17,18.59 11.97,49.55 6.69,73.44 z m -211.21,-95.46 c -14.72,-17.48 -39.29,-39.93 -58.69,-54.16 -18.04,-13.29 -55.51,-36.4 -67.58,-43.29 0,0 58.56,226.19 60.64,232.31 1.34,4 7.1,10.47 15.4,11.68 8.29,1.22 18.17,0.98 30.66,-4.08 15.24,-6.23 25.29,-14.56 34,-26.74 9.22,-12.92 15.44,-26.88 14.79,-46.19 -0.78,-24.3 -14.4,-51.96 -29.22,-69.53"
       style="fill:#2e4c93;fill-opacity:1;fill-rule:nonzero;stroke:none"
       transform="matrix(0.13333333,0,0,-0.13333333,0,261.42667)" />
    <path
       id="path8"
       d="m 55.9609,784.34 16.0625,61.101 -61.6992,97.028 H 39.1641 L 68.5977,896.5 c 6.4453,-10.031 12.7148,-20.77 18.8046,-32.23 6.6758,9.468 15.7967,20 27.3597,31.609 l 46.703,46.59 h 31.781 L 98.0977,843.82 82.4609,784.34 h -26.5"
       style="fill:#2e4c93;fill-opacity:1;fill-rule:nonzero;stroke:none"
       transform="matrix(0.13333333,0,0,-0.13333333,0,261.42667)" />
    <path
       id="path9"
       d="m 55.9609,784.34 16.0625,61.101 -61.6992,97.028 H 39.1641 L 68.5977,896.5 c 6.4453,-10.031 12.7148,-20.77 18.8046,-32.23 6.6758,9.468 15.7967,20 27.3597,31.609 l 46.703,46.59 h 31.781 L 98.0977,843.82 82.4609,784.34 Z"
       style="fill:none;stroke:#2e4c93;stroke-width:11.339;stroke-linecap:butt;stroke-linejoin:miter;stroke-miterlimit:4;stroke-dasharray:none;stroke-opacity:1"
       transform="matrix(0.13333333,0,0,-0.13333333,0,261.42667)" />
    <path
       id="path10"
       d="m 185.602,784.34 112.503,158.129 h 32.29 L 363.066,784.34 h -25.8 l -9.457,45.629 h -80.84 L 215.082,784.34 Z m 73.027,61.879 h 65.828 l -7.723,39.679 c -3.086,15.75 -5.004,28.883 -5.754,39.383 -4.57,-9.043 -11.246,-19.769 -20.011,-32.191 l -32.34,-46.871"
       style="fill:#2e4c93;fill-opacity:1;fill-rule:nonzero;stroke:none"
       transform="matrix(0.13333333,0,0,-0.13333333,0,261.42667)" />
    <path
       id="path11"
       d="m 185.602,784.34 112.503,158.129 h 32.29 L 363.066,784.34 h -25.8 l -9.457,45.629 h -80.84 L 215.082,784.34 Z m 73.027,61.879 h 65.828 l -7.723,39.679 c -3.086,15.75 -5.004,28.883 -5.754,39.383 -4.57,-9.043 -11.246,-19.769 -20.011,-32.191 z"
       style="fill:none;stroke:#2e4c93;stroke-width:11.339;stroke-linecap:butt;stroke-linejoin:miter;stroke-miterlimit:4;stroke-dasharray:none;stroke-opacity:1"
       transform="matrix(0.13333333,0,0,-0.13333333,0,261.42667)" />
    <path
       id="path12"
       d="m 573.063,839.969 26.25,-2.809 c -8.344,-18.23 -20.5,-32 -36.458,-41.332 -15.957,-9.316 -33.867,-13.988 -53.718,-13.988 -24.211,0 -43.414,5.851 -57.606,17.539 -14.187,11.691 -21.281,28.441 -21.281,50.25 0,28.41 10.785,51.902 32.363,70.48 19.211,16.571 43.102,24.86 71.657,24.86 21.121,0 38.23,-4.489 51.332,-13.469 13.093,-8.988 20.687,-21.059 22.773,-36.219 l -25,-1.871 c -2.605,11.422 -8.004,19.949 -16.203,25.602 -8.195,5.636 -18.774,8.457 -31.727,8.457 -24.371,0 -44.074,-8.571 -59.113,-25.688 -13.016,-14.769 -19.519,-32.293 -19.519,-52.562 0,-16.199 5.035,-28.559 15.105,-37.09 10.074,-8.52 23.187,-12.789 39.344,-12.789 13.793,0 26.273,3.539 37.433,10.609 11.164,7.082 19.285,17.082 24.368,30.02"
       style="fill:#2e4c93;fill-opacity:1;fill-rule:nonzero;stroke:none"
       transform="matrix(0.13333333,0,0,-0.13333333,0,261.42667)" />
    <path
       id="path13"
       d="m 573.063,839.969 26.25,-2.809 c -8.344,-18.23 -20.5,-32 -36.458,-41.332 -15.957,-9.316 -33.867,-13.988 -53.718,-13.988 -24.211,0 -43.414,5.851 -57.606,17.539 -14.187,11.691 -21.281,28.441 -21.281,50.25 0,28.41 10.785,51.902 32.363,70.48 19.211,16.571 43.102,24.86 71.657,24.86 21.121,0 38.23,-4.489 51.332,-13.469 13.093,-8.988 20.687,-21.059 22.773,-36.219 l -25,-1.871 c -2.605,11.422 -8.004,19.949 -16.203,25.602 -8.195,5.636 -18.774,8.457 -31.727,8.457 -24.371,0 -44.074,-8.571 -59.113,-25.688 -13.016,-14.769 -19.519,-32.293 -19.519,-52.562 0,-16.199 5.035,-28.559 15.105,-37.09 10.074,-8.52 23.187,-12.789 39.344,-12.789 13.793,0 26.273,3.539 37.433,10.609 11.164,7.082 19.285,17.082 24.368,30.02 z"
       style="fill:none;stroke:#2e4c93;stroke-width:11.339;stroke-linecap:butt;stroke-linejoin:miter;stroke-miterlimit:4;stroke-dasharray:none;stroke-opacity:1"
       transform="matrix(0.13333333,0,0,-0.13333333,0,261.42667)" />
    <path
       id="path14"
       d="m 645.566,784.34 41.563,158.129 h 26.488 L 696.371,876.84 h 104.133 l 17.246,65.629 h 26.492 L 802.688,784.34 h -26.497 l 19.629,74.691 H 691.688 L 672.063,784.34 h -26.497"
       style="fill:#2e4c93;fill-opacity:1;fill-rule:nonzero;stroke:none"
       transform="matrix(0.13333333,0,0,-0.13333333,0,261.42667)" />
    <path
       id="path15"
       d="m 645.566,784.34 41.563,158.129 h 26.488 L 696.371,876.84 h 104.133 l 17.246,65.629 h 26.492 L 802.688,784.34 h -26.497 l 19.629,74.691 H 691.688 L 672.063,784.34 Z"
       style="fill:none;stroke:#2e4c93;stroke-width:11.339;stroke-linecap:butt;stroke-linejoin:miter;stroke-miterlimit:4;stroke-dasharray:none;stroke-opacity:1"
       transform="matrix(0.13333333,0,0,-0.13333333,0,261.42667)" />
    <path
       id="path16"
       d="m 926.855,784.34 36.918,140.32 h -66.64 l 4.758,17.809 h 157.899 l -4.75,-17.809 H 990.266 L 953.352,784.34 h -26.497"
       style="fill:#2e4c93;fill-opacity:1;fill-rule:nonzero;stroke:none"
       transform="matrix(0.13333333,0,0,-0.13333333,0,261.42667)" />
    <path
       id="path17"
       d="m 926.855,784.34 36.918,140.32 h -66.64 l 4.758,17.809 h 157.899 l -4.75,-17.809 H 990.266 L 953.352,784.34 Z"
       style="fill:none;stroke:#2e4c93;stroke-width:11.339;stroke-linecap:butt;stroke-linejoin:miter;stroke-miterlimit:4;stroke-dasharray:none;stroke-opacity:1"
       transform="matrix(0.13333333,0,0,-0.13333333,0,261.42667)" />
    <path
       id="path18"
       d="m 1177.85,784.34 41.56,158.129 h 60.15 c 14.42,0 25.44,-0.828 33.06,-2.481 10.89,-2.226 20.18,-6.207 27.89,-11.918 7.71,-5.718 13.52,-12.859 17.42,-21.41 3.9,-8.558 5.85,-18.16 5.85,-28.801 0,-12.73 -2.42,-24.328 -7.28,-34.789 -4.85,-10.461 -11.2,-19.66 -19.04,-27.609 -7.84,-7.949 -16.05,-14.172 -24.62,-18.66 -8.57,-4.492 -18.7,-7.821 -30.39,-9.981 -8.89,-1.648 -19.82,-2.48 -32.79,-2.48 z m 31.17,17.82 h 31.67 c 14.28,0 26.97,1.039 38.07,3.121 6.92,1.297 12.84,3.207 17.75,5.731 6.46,3.25 12.33,7.527 17.61,12.867 6.91,7.062 12.44,15.121 16.58,24.16 4.14,9.051 6.21,19.352 6.21,30.883 0,12.828 -2.83,22.68 -8.48,29.566 -5.65,6.883 -12.84,11.442 -21.59,13.684 -6.48,1.656 -16.55,2.488 -30.21,2.488 h -35.41 l -32.2,-122.5"
       style="fill:#2e4c93;fill-opacity:1;fill-rule:nonzero;stroke:none"
       transform="matrix(0.13333333,0,0,-0.13333333,0,261.42667)" />
    <path
       id="path19"
       d="m 1177.85,784.34 41.56,158.129 h 60.15 c 14.42,0 25.44,-0.828 33.06,-2.481 10.89,-2.226 20.18,-6.207 27.89,-11.918 7.71,-5.718 13.52,-12.859 17.42,-21.41 3.9,-8.558 5.85,-18.16 5.85,-28.801 0,-12.73 -2.42,-24.328 -7.28,-34.789 -4.85,-10.461 -11.2,-19.66 -19.04,-27.609 -7.84,-7.949 -16.05,-14.172 -24.62,-18.66 -8.57,-4.492 -18.7,-7.821 -30.39,-9.981 -8.89,-1.648 -19.82,-2.48 -32.79,-2.48 z m 31.17,17.82 h 31.67 c 14.28,0 26.97,1.039 38.07,3.121 6.92,1.297 12.84,3.207 17.75,5.731 6.46,3.25 12.33,7.527 17.61,12.867 6.91,7.062 12.44,15.121 16.58,24.16 4.14,9.051 6.21,19.352 6.21,30.883 0,12.828 -2.83,22.68 -8.48,29.566 -5.65,6.883 -12.84,11.442 -21.59,13.684 -6.48,1.656 -16.55,2.488 -30.21,2.488 h -35.41 z"
       style="fill:none;stroke:#2e4c93;stroke-width:11.339;stroke-linecap:butt;stroke-linejoin:miter;stroke-miterlimit:4;stroke-dasharray:none;stroke-opacity:1"
       transform="matrix(0.13333333,0,0,-0.13333333,0,261.42667)" />
    <path
       id="path20"
       d="m 1405.98,784.34 41.56,158.129 h 144.69 l -4.44,-17.809 h -118.44 l -13.07,-49.691 h 115.95 l -4.69,-17.809 h -115.93 l -14.46,-55 h 126.16 l -4.77,-17.82 h -152.56"
       style="fill:#2e4c93;fill-opacity:1;fill-rule:nonzero;stroke:none"
       transform="matrix(0.13333333,0,0,-0.13333333,0,261.42667)" />
    <path
       id="path21"
       d="m 1405.98,784.34 41.56,158.129 h 144.69 l -4.44,-17.809 h -118.44 l -13.07,-49.691 h 115.95 l -4.69,-17.809 h -115.93 l -14.46,-55 h 126.16 l -4.77,-17.82 z"
       style="fill:none;stroke:#2e4c93;stroke-width:11.339;stroke-linecap:butt;stroke-linejoin:miter;stroke-miterlimit:4;stroke-dasharray:none;stroke-opacity:1"
       transform="matrix(0.13333333,0,0,-0.13333333,0,261.42667)" />
    <path
       id="path22"
       d="m 1627.19,835.59 25.94,1.879 -0.27,-5.489 c 0,-6.109 1.75,-11.691 5.27,-16.75 3.53,-5.07 9.35,-8.98 17.47,-11.742 8.13,-2.758 17.78,-4.148 28.97,-4.148 15.88,0 28,2.769 36.35,8.289 8.35,5.531 12.52,11.851 12.52,18.961 0,4.961 -2.21,9.48 -6.62,13.57 -4.52,4.02 -16.82,9.469 -36.92,16.36 -15.6,5.378 -26.24,9.5 -31.92,12.371 -8.93,4.66 -15.51,9.738 -19.75,15.23 -4.24,5.488 -6.35,11.75 -6.35,18.777 0,8.102 2.8,15.422 8.4,21.954 5.6,6.519 13.8,11.5 24.6,14.949 10.8,3.437 22.98,5.168 36.54,5.168 16.17,0 29.82,-2.149 40.93,-6.438 11.11,-4.293 19.18,-10.011 24.19,-17.16 5.02,-7.152 7.53,-13.98 7.53,-20.492 0,-0.641 0,-1.719 0,-3.219 l -25.94,-1.609 c 0,4.429 -0.5,7.898 -1.48,10.398 -1.8,4.36 -4.59,8.039 -8.36,11.051 -3.78,3 -8.97,5.41 -15.57,7.23 -6.61,1.829 -14,2.739 -22.17,2.739 -14.38,0 -25.57,-2.59 -33.57,-7.758 -6.11,-3.949 -9.16,-9.191 -9.16,-15.723 0,-3.879 1.25,-7.347 3.77,-10.398 2.52,-3.051 7.06,-6.051 13.62,-8.988 4.68,-2.082 15.78,-6.204 33.32,-12.372 14.2,-5.031 24,-8.968 29.4,-11.839 7.19,-3.801 12.72,-8.411 16.59,-13.832 3.86,-5.411 5.8,-11.559 5.8,-18.45 0,-8.531 -3.28,-16.41 -9.82,-23.621 -6.54,-7.207 -15.59,-12.777 -27.15,-16.726 -11.55,-3.942 -24.77,-5.922 -39.66,-5.922 -22.48,0 -40.82,3.89 -55.04,11.691 -14.22,7.789 -21.37,21.809 -21.46,42.059"
       style="fill:#2e4c93;fill-opacity:1;fill-rule:nonzero;stroke:none"
       transform="matrix(0.13333333,0,0,-0.13333333,0,261.42667)" />
    <path
       id="path23"
       d="m 1627.19,835.59 25.94,1.879 -0.27,-5.489 c 0,-6.109 1.75,-11.691 5.27,-16.75 3.53,-5.07 9.35,-8.98 17.47,-11.742 8.13,-2.758 17.78,-4.148 28.97,-4.148 15.88,0 28,2.769 36.35,8.289 8.35,5.531 12.52,11.851 12.52,18.961 0,4.961 -2.21,9.48 -6.62,13.57 -4.52,4.02 -16.82,9.469 -36.92,16.36 -15.6,5.378 -26.24,9.5 -31.92,12.371 -8.93,4.66 -15.51,9.738 -19.75,15.23 -4.24,5.488 -6.35,11.75 -6.35,18.777 0,8.102 2.8,15.422 8.4,21.954 5.6,6.519 13.8,11.5 24.6,14.949 10.8,3.437 22.98,5.168 36.54,5.168 16.17,0 29.82,-2.149 40.93,-6.438 11.11,-4.293 19.18,-10.011 24.19,-17.16 5.02,-7.152 7.53,-13.98 7.53,-20.492 0,-0.641 0,-1.719 0,-3.219 l -25.94,-1.609 c 0,4.429 -0.5,7.898 -1.48,10.398 -1.8,4.36 -4.59,8.039 -8.36,11.051 -3.78,3 -8.97,5.41 -15.57,7.23 -6.61,1.829 -14,2.739 -22.17,2.739 -14.38,0 -25.57,-2.59 -33.57,-7.758 -6.11,-3.949 -9.16,-9.191 -9.16,-15.723 0,-3.879 1.25,-7.347 3.77,-10.398 2.52,-3.051 7.06,-6.051 13.62,-8.988 4.68,-2.082 15.78,-6.204 33.32,-12.372 14.2,-5.031 24,-8.968 29.4,-11.839 7.19,-3.801 12.72,-8.411 16.59,-13.832 3.86,-5.411 5.8,-11.559 5.8,-18.45 0,-8.531 -3.28,-16.41 -9.82,-23.621 -6.54,-7.207 -15.59,-12.777 -27.15,-16.726 -11.55,-3.942 -24.77,-5.922 -39.66,-5.922 -22.48,0 -40.82,3.89 -55.04,11.691 -14.22,7.789 -21.37,21.809 -21.46,42.059 z"
       style="fill:none;stroke:#2e4c93;stroke-width:11.339;stroke-linecap:butt;stroke-linejoin:miter;stroke-miterlimit:4;stroke-dasharray:none;stroke-opacity:1"
       transform="matrix(0.13333333,0,0,-0.13333333,0,261.42667)" />
    <path
       id="path24"
       d="m 1837.15,784.34 41.57,158.129 h 26.49 L 1863.65,784.34 h -26.5"
       style="fill:#2e4c93;fill-opacity:1;fill-rule:nonzero;stroke:none"
       transform="matrix(0.13333333,0,0,-0.13333333,0,261.42667)" />
    <path
       id="path25"
       d="m 1837.15,784.34 41.57,158.129 h 26.49 L 1863.65,784.34 Z"
       style="fill:none;stroke:#2e4c93;stroke-width:11.339;stroke-linecap:butt;stroke-linejoin:miter;stroke-miterlimit:4;stroke-dasharray:none;stroke-opacity:1"
       transform="matrix(0.13333333,0,0,-0.13333333,0,261.42667)" />
    <path
       id="path26"
       d="m 2039.75,846.84 4.76,17.82 h 87.21 l -16.88,-64.238 c -10.96,-5.473 -23.46,-9.934 -37.5,-13.391 -14.03,-3.461 -27.85,-5.191 -41.43,-5.191 -28.99,0 -50.63,6.922 -64.94,20.769 -12.04,11.692 -18.06,26.719 -18.06,45.09 0,18.93 5.26,36.16 15.8,51.699 10.53,15.524 23.82,27 39.88,34.43 16.05,7.422 33.89,11.141 53.51,11.141 14.11,0 26.77,-2.039 37.99,-6.11 11.21,-4.07 19.8,-9.507 25.77,-16.32 5.97,-6.809 10.26,-15.687 12.89,-26.629 l -25.94,-2.5 c -2.81,10.981 -8.63,19.41 -17.46,25.27 -8.83,5.859 -20.18,8.789 -34.04,8.789 -14.4,0 -27.86,-3.11 -40.36,-9.309 -12.5,-6.199 -22.49,-15.558 -29.96,-28.082 -7.47,-12.508 -11.21,-26.726 -11.21,-42.648 0,-15.852 4.95,-27.828 14.85,-35.93 9.9,-8.109 23.56,-12.16 41,-12.16 17.35,0 36.02,4.519 56,13.57 l 8.92,33.93 h -60.8"
       style="fill:#2e4c93;fill-opacity:1;fill-rule:nonzero;stroke:none"
       transform="matrix(0.13333333,0,0,-0.13333333,0,261.42667)" />
    <path
       id="path27"
       d="m 2039.75,846.84 4.76,17.82 h 87.21 l -16.88,-64.238 c -10.96,-5.473 -23.46,-9.934 -37.5,-13.391 -14.03,-3.461 -27.85,-5.191 -41.43,-5.191 -28.99,0 -50.63,6.922 -64.94,20.769 -12.04,11.692 -18.06,26.719 -18.06,45.09 0,18.93 5.26,36.16 15.8,51.699 10.53,15.524 23.82,27 39.88,34.43 16.05,7.422 33.89,11.141 53.51,11.141 14.11,0 26.77,-2.039 37.99,-6.11 11.21,-4.07 19.8,-9.507 25.77,-16.32 5.97,-6.809 10.26,-15.687 12.89,-26.629 l -25.94,-2.5 c -2.81,10.981 -8.63,19.41 -17.46,25.27 -8.83,5.859 -20.18,8.789 -34.04,8.789 -14.4,0 -27.86,-3.11 -40.36,-9.309 -12.5,-6.199 -22.49,-15.558 -29.96,-28.082 -7.47,-12.508 -11.21,-26.726 -11.21,-42.648 0,-15.852 4.95,-27.828 14.85,-35.93 9.9,-8.109 23.56,-12.16 41,-12.16 17.35,0 36.02,4.519 56,13.57 l 8.92,33.93 z"
       style="fill:none;stroke:#2e4c93;stroke-width:11.339;stroke-linecap:butt;stroke-linejoin:miter;stroke-miterlimit:4;stroke-dasharray:none;stroke-opacity:1"
       transform="matrix(0.13333333,0,0,-0.13333333,0,261.42667)" />
    <path
       id="path28"
       d="m 2182.14,784.34 41.57,158.129 h 28.27 l 32.76,-59.27 c 9.99,-18.109 17.9,-33.34 23.73,-45.699 3.36,-7.191 7.25,-16.879 11.67,-29.09 2.49,13.379 5.61,27.149 9.37,41.309 l 24.19,92.75 h 25.93 l -41.2,-158.129 h -26.68 l -47.95,91.57 c -8.68,16.149 -15.9,31.281 -21.67,45.371 -1.91,-11.992 -4.83,-25.453 -8.76,-40.402 l -25.29,-96.539 h -25.94"
       style="fill:#2e4c93;fill-opacity:1;fill-rule:nonzero;stroke:none"
       transform="matrix(0.13333333,0,0,-0.13333333,0,261.42667)" />
    <path
       id="path29"
       d="m 2182.14,784.34 41.57,158.129 h 28.27 l 32.76,-59.27 c 9.99,-18.109 17.9,-33.34 23.73,-45.699 3.36,-7.191 7.25,-16.879 11.67,-29.09 2.49,13.379 5.61,27.149 9.37,41.309 l 24.19,92.75 h 25.93 l -41.2,-158.129 h -26.68 l -47.95,91.57 c -8.68,16.149 -15.9,31.281 -21.67,45.371 -1.91,-11.992 -4.83,-25.453 -8.76,-40.402 l -25.29,-96.539 z"
       style="fill:none;stroke:#2e4c93;stroke-width:11.339;stroke-linecap:butt;stroke-linejoin:miter;stroke-miterlimit:4;stroke-dasharray:none;stroke-opacity:1"
       transform="matrix(0.13333333,0,0,-0.13333333,0,261.42667)" />
  </g>
</svg>
